<svg id="outputsvg" version="1.0" xmlns="http://www.w3.org/2000/svg" width="40"
     height="40" viewBox="0 0 2100 2100" preserveAspectRatio="xMinYMin meet" title="logo.svg">
    <g id="layer101" fill="{{include.fill}}" stroke="none">
        <path d="M774 2084 c-362 -79 -713 -450 -763 -807 -14 -100 -14 -344 0 -444 25 -180 129 -374 282 -525 122 -122 221 -188 371 -248 141 -56 389 -75 596 -46 344 49 678 341 803 700 l32 91 0 250 0 250 -32 90 c-102 291 -326 531 -609 649 -110 46 -190 56 -414 55 -128 -1 -228 -7 -266 -15z m501 -93 c289 -71 521 -259 645 -523 71 -151 85 -219 85 -413 0 -146 -3 -182 -23 -253 -97 -358 -371 -617 -736 -699 -91 -20 -289 -22 -381 -4 -198 39 -378 136 -513 274 -341 352 -365 913 -56 1294 154 190 370 307 639 347 64 9 262 -4 340 -23z"></path>
        <path d="M961 1897 c-220 -20 -419 -128 -572 -310 -62 -74 -144 -221 -133 -238 4 -7 18 -8 38 -4 270 62 553 49 806 -35 73 -25 236 -101 305 -143 41 -25 145 -98 145 -102 0 -2 -25 7 -57 21 -106 47 -318 112 -403 123 -47 6 -127 13 -178 15 -86 4 -93 3 -106 -17 -16 -26 -49 -253 -50 -346 l-1 -64 109 -24 c60 -14 148 -38 195 -55 47 -16 93 -30 101 -31 16 -2 37 38 101 188 24 55 46 104 49 108 4 5 39 -8 78 -28 l71 -37 -16 -32 c-9 -17 -47 -82 -85 -144 -38 -62 -66 -117 -63 -122 4 -6 28 -21 55 -35 74 -37 68 -45 -18 -23 l-77 20 -50 -58 c-27 -33 -103 -112 -168 -178 -87 -87 -115 -122 -107 -130 16 -16 175 -20 255 -6 327 58 600 309 687 632 46 169 25 398 -49 557 -61 131 -187 279 -303 358 -163 111 -355 159 -559 140z"></path>
        <path d="M515 1194 c-107 -23 -286 -85 -308 -107 -17 -17 -19 -29 -13 -93 7 -91 34 -200 52 -215 10 -8 37 -7 105 5 51 9 127 16 170 16 49 0 81 4 85 12 4 6 7 59 6 117 -1 58 1 141 6 184 11 105 11 105 -103 81z"></path>
        <path d="M740 620 c-16 -31 -11 -324 6 -348 14 -20 127 -57 148 -49 26 10 226 333 226 365 0 7 -10 16 -23 21 -34 13 -192 31 -274 31 -63 0 -74 -3 -83 -20z"></path>
        <path d="M514 610 c-44 -10 -97 -25 -118 -34 l-38 -16 30 -37 c37 -46 103 -109 157 -150 63 -47 153 -95 159 -84 3 5 -7 65 -23 133 -16 67 -33 141 -38 163 -11 49 -19 50 -129 25z"></path>
    </g>
</svg>